<svg width="32" height="32" viewBox="0 0 32 32" fill="none" xmlns="http://www.w3.org/2000/svg">
<path d="M9.9227 7.13281C10.7747 7.13281 11.5627 7.19948 12.2827 7.39681C12.9361 7.51687 13.5597 7.76325 14.1187 8.12215C14.644 8.45148 15.0374 8.91415 15.2987 9.50748C15.5614 10.1008 15.692 10.8275 15.692 11.6181C15.692 12.5421 15.496 13.3328 15.0374 13.9261C14.644 14.5208 13.988 15.0475 13.2014 15.4435C14.316 15.7741 15.168 16.3675 15.692 17.1581C16.2174 17.9501 16.5454 18.9395 16.5454 20.0608C16.5454 20.9848 16.348 21.7755 16.02 22.4355C15.692 23.0955 15.168 23.6888 14.5774 24.0848C13.9358 24.5093 13.2265 24.8213 12.48 25.0075C11.6934 25.2061 10.9067 25.3381 10.12 25.3381H1.33203V7.13281H9.9227ZM9.39736 14.5195C10.1187 14.5195 10.7094 14.3221 11.168 13.9928C11.6267 13.6635 11.824 13.0688 11.824 12.3435C11.824 11.9475 11.7574 11.5515 11.6267 11.2888C11.496 11.0248 11.2987 10.8261 11.0374 10.6288C10.7747 10.4968 10.512 10.3648 10.184 10.2995C9.85603 10.2328 9.52937 10.2328 9.1347 10.2328H5.33203V14.5208H9.3987L9.39736 14.5195ZM9.5947 22.3035C9.98803 22.3035 10.3814 22.2368 10.7094 22.1715C11.0405 22.1085 11.3537 21.9733 11.6267 21.7755C11.8939 21.5825 12.1174 21.3353 12.2827 21.0501C12.4134 20.7208 12.5454 20.3248 12.5454 19.8635C12.5454 18.9395 12.2827 18.2795 11.7587 17.8181C11.2334 17.4221 10.512 17.2248 9.66003 17.2248H5.33203V22.3048H9.5947V22.3035ZM22.2507 22.2368C22.7747 22.7648 23.5614 23.0288 24.6107 23.0288C25.332 23.0288 25.988 22.8315 26.512 22.5021C27.0374 22.1061 27.3654 21.7101 27.496 21.3141H30.7094C30.184 22.8968 29.3974 24.0181 28.3494 24.7435C27.2987 25.4035 26.0534 25.7995 24.5454 25.7995C23.5805 25.8024 22.6238 25.6233 21.7254 25.2715C20.917 24.9682 20.1961 24.4699 19.6267 23.8208C19.0178 23.2136 18.5676 22.4658 18.316 21.6435C17.988 20.7861 17.856 19.8635 17.856 18.8075C17.856 17.8181 17.988 16.8955 18.316 16.0368C18.6314 15.2103 19.098 14.4497 19.692 13.7941C20.2827 13.2008 21.004 12.6741 21.7907 12.3435C22.6663 11.9916 23.6017 11.8123 24.5454 11.8155C25.66 11.8155 26.644 12.0141 27.496 12.4755C28.3494 12.9368 29.004 13.4648 29.5294 14.2568C30.0653 15.0175 30.4646 15.8658 30.7094 16.7635C30.84 17.6861 30.9054 18.6101 30.84 19.6648H21.332C21.332 20.7208 21.7254 21.7101 22.2507 22.2381V22.2368ZM26.3814 15.3115C25.9227 14.8501 25.2014 14.5861 24.348 14.5861C23.7587 14.5861 23.2987 14.7181 22.9054 14.9155C22.512 15.1141 22.2507 15.3781 21.988 15.6421C21.7467 15.8972 21.5869 16.2184 21.5294 16.5648C21.4627 16.8955 21.3974 17.1581 21.3974 17.4221H27.2987C27.168 16.4328 26.84 15.7741 26.3814 15.3115ZM20.6107 8.38615H27.9547V10.1675H20.612V8.38615H20.6107Z" fill="black"/>
</svg>
