<svg width="64" height="64" viewBox="0 0 64 64" fill="none" xmlns="http://www.w3.org/2000/svg">
<path d="M19.8454 14.2656C21.5494 14.2656 23.1254 14.399 24.5654 14.7936C25.8721 15.0337 27.1194 15.5265 28.2374 16.2443C29.2881 16.903 30.0747 17.8283 30.5974 19.015C31.1227 20.2016 31.3841 21.655 31.3841 23.2363C31.3841 25.0843 30.9921 26.6656 30.0747 27.8523C29.2881 29.0416 27.9761 30.095 26.4027 30.887C28.6321 31.5483 30.3361 32.735 31.3841 34.3163C32.4347 35.9003 33.0907 37.879 33.0907 40.1216C33.0907 41.9696 32.6961 43.551 32.0401 44.871C31.3841 46.191 30.3361 47.3776 29.1547 48.1696C27.8715 49.0186 26.453 49.6426 24.9601 50.015C23.3867 50.4123 21.8134 50.6763 20.2401 50.6763H2.66406V14.2656H19.8454ZM18.7947 29.039C20.2374 29.039 21.4187 28.6443 22.3361 27.9856C23.2534 27.327 23.6481 26.1376 23.6481 24.687C23.6481 23.895 23.5147 23.103 23.2534 22.5776C22.9921 22.0496 22.5974 21.6523 22.0747 21.2576C21.5494 20.9936 21.0241 20.7296 20.3681 20.599C19.7121 20.4656 19.0587 20.4656 18.2694 20.4656H10.6641V29.0416H18.7974L18.7947 29.039ZM19.1894 44.607C19.9761 44.607 20.7627 44.4736 21.4187 44.343C22.0811 44.217 22.7075 43.9466 23.2534 43.551C23.7878 43.1649 24.2348 42.6706 24.5654 42.1003C24.8267 41.4416 25.0907 40.6496 25.0907 39.727C25.0907 37.879 24.5654 36.559 23.5174 35.6363C22.4667 34.8443 21.0241 34.4496 19.3201 34.4496H10.6641V44.6096H19.1894V44.607ZM44.5014 44.4736C45.5494 45.5296 47.1227 46.0576 49.2214 46.0576C50.6641 46.0576 51.9761 45.663 53.0241 45.0043C54.0747 44.2123 54.7307 43.4203 54.9921 42.6283H61.4187C60.3681 45.7936 58.7947 48.0363 56.6987 49.487C54.5974 50.807 52.1067 51.599 49.0907 51.599C47.161 51.6048 45.2476 51.2465 43.4507 50.543C41.834 49.9364 40.3921 48.9398 39.2534 47.6416C38.0355 46.4272 37.1353 44.9316 36.6321 43.287C35.9761 41.5723 35.7121 39.727 35.7121 37.615C35.7121 35.6363 35.9761 33.791 36.6321 32.0736C37.2628 30.4205 38.196 28.8995 39.3841 27.5883C40.5654 26.4016 42.0081 25.3483 43.5814 24.687C45.3326 23.9831 47.2034 23.6245 49.0907 23.631C51.3201 23.631 53.2881 24.0283 54.9921 24.951C56.6987 25.8736 58.0081 26.9296 59.0587 28.5136C60.1305 30.035 60.9291 31.7315 61.4187 33.527C61.6801 35.3723 61.8107 37.2203 61.6801 39.3296H42.6641C42.6641 41.4416 43.4507 43.4203 44.5014 44.4763V44.4736ZM52.7627 30.623C51.8454 29.7003 50.4027 29.1723 48.6961 29.1723C47.5174 29.1723 46.5974 29.4363 45.8107 29.831C45.0241 30.2283 44.5014 30.7563 43.9761 31.2843C43.4933 31.7943 43.1739 32.4369 43.0587 33.1296C42.9254 33.791 42.7947 34.3163 42.7947 34.8443H54.5974C54.3361 32.8656 53.6801 31.5483 52.7627 30.623V30.623ZM41.2214 16.7723H55.9094V20.335H41.2241V16.7723H41.2214Z" fill="#3267F6"/>
</svg>
