<svg width="32" height="32" viewBox="0 0 32 32" fill="none" xmlns="http://www.w3.org/2000/svg">
<path d="M26.6533 15.4294C26.544 13.3306 25.814 11.3116 24.556 9.62808C24.1726 10.0409 23.7629 10.4284 23.3293 10.7881C21.9972 11.8945 20.5086 12.7977 18.912 13.4681C19.1346 13.9347 19.3386 14.3867 19.5186 14.8134V14.8174C19.5694 14.9366 19.6183 15.0566 19.6653 15.1774C21.684 14.9507 23.812 15.0334 25.8746 15.3121C26.1493 15.3494 26.408 15.3894 26.6533 15.4294V15.4294ZM14.14 5.49608C15.4393 7.32698 16.6376 9.2276 17.7293 11.1894C19.36 10.5467 20.708 9.73608 21.7933 8.83341C22.17 8.52292 22.5247 8.18655 22.8546 7.82675C20.9359 6.21304 18.5084 5.32986 16.0013 5.33341C15.3773 5.33299 14.7545 5.38697 14.14 5.49475V5.49608ZM5.67197 13.3294C6.58027 13.3065 7.48749 13.2518 8.39197 13.1654C10.5782 12.9699 12.7457 12.6034 14.8746 12.0694C13.762 10.1364 12.5607 8.25569 11.2746 6.43341C9.90093 7.11394 8.68965 8.08196 7.72296 9.2718C6.75628 10.4616 6.05679 11.8455 5.67197 13.3294ZM7.71197 22.7134C8.2293 21.9574 8.9093 21.1067 9.81197 20.1814C11.7506 18.1947 14.0386 16.6481 16.6866 15.7947L16.7693 15.7707C16.5493 15.2854 16.3426 14.8521 16.1346 14.4441C13.6866 15.1574 11.108 15.6027 8.53863 15.8334C7.2853 15.9467 6.1613 15.9961 5.33464 16.0041C5.33228 18.4475 6.17236 20.8171 7.7133 22.7134H7.71197ZM20.008 25.8867C19.4938 23.2937 18.766 20.7477 17.832 18.2747C15.1626 19.2441 13.036 20.6614 11.392 22.3521C10.7285 23.0219 10.1397 23.7618 9.63597 24.5587C11.4744 25.9305 13.7075 26.67 16.0013 26.6667C17.3745 26.6687 18.7351 26.4047 20.008 25.8894V25.8867ZM22.5053 24.4534C24.587 22.8531 26.0051 20.541 26.488 17.9601C26.0346 17.8467 25.46 17.7334 24.828 17.6454C23.4228 17.4431 21.997 17.4283 20.588 17.6014C21.3814 19.8399 22.022 22.1296 22.5053 24.4547V24.4534ZM16.0013 29.3334C8.6373 29.3334 2.66797 23.3641 2.66797 16.0001C2.66797 8.63608 8.6373 2.66675 16.0013 2.66675C23.3653 2.66675 29.3346 8.63608 29.3346 16.0001C29.3346 23.3641 23.3653 29.3334 16.0013 29.3334Z" fill="#007BFF"/>
</svg>
