<svg width="64" height="64" viewBox="0 0 64 64" fill="none" xmlns="http://www.w3.org/2000/svg">
<path d="M53.3066 30.8583C53.088 26.6608 51.6281 22.6226 49.1119 19.2557C48.3453 20.0814 47.5258 20.8563 46.6586 21.5757C43.9944 23.7886 41.0172 25.5948 37.8239 26.9357C38.2693 27.869 38.6773 28.773 39.0373 29.6263V29.6343C39.1388 29.8728 39.2366 30.1128 39.3306 30.3543C43.3679 29.901 47.6239 30.0663 51.7493 30.6237C52.2986 30.6983 52.8159 30.7783 53.3066 30.8583V30.8583ZM28.2799 10.9917C30.8787 14.6535 33.2752 18.4547 35.4586 22.3783C38.7199 21.093 41.4159 19.4717 43.5866 17.6663C44.3401 17.0454 45.0493 16.3726 45.7093 15.653C41.8719 12.4256 37.0168 10.6592 32.0026 10.6663C30.7547 10.6655 29.5091 10.7735 28.2799 10.989V10.9917ZM11.3439 26.6583C13.1605 26.6125 14.975 26.5031 16.7839 26.3303C21.1563 25.9393 25.4913 25.2063 29.7493 24.1383C27.524 20.2722 25.1214 16.5109 22.5493 12.8663C19.8019 14.2274 17.3793 16.1634 15.4459 18.5431C13.5126 20.9228 12.1136 23.6904 11.3439 26.6583ZM15.4239 45.4263C16.4586 43.9143 17.8186 42.213 19.6239 40.3623C23.5013 36.389 28.0773 33.2957 33.3733 31.589L33.5386 31.541C33.0986 30.5703 32.6853 29.7037 32.2693 28.8877C27.3733 30.3143 22.2159 31.205 17.0773 31.6663C14.5706 31.893 12.3226 31.9917 10.6693 32.0077C10.6646 36.8946 12.3447 41.6337 15.4266 45.4263H15.4239ZM40.0159 51.773C38.9876 46.587 37.532 41.495 35.6639 36.549C30.3253 38.4877 26.0719 41.3223 22.7839 44.7037C21.457 46.0434 20.2794 47.5231 19.2719 49.117C22.9488 51.8604 27.4151 53.3396 32.0026 53.333C34.749 53.3369 37.4702 52.809 40.0159 51.7783V51.773ZM45.0106 48.9063C49.174 45.7057 52.0102 41.0816 52.9759 35.9197C52.0693 35.693 50.9199 35.4663 49.6559 35.2903C46.8456 34.8856 43.994 34.8561 41.1759 35.2023C42.7628 39.6792 44.0439 44.2586 45.0106 48.909V48.9063ZM32.0026 58.6663C17.2746 58.6663 5.33594 46.7277 5.33594 31.9997C5.33594 17.2717 17.2746 5.33301 32.0026 5.33301C46.7306 5.33301 58.6693 17.2717 58.6693 31.9997C58.6693 46.7277 46.7306 58.6663 32.0026 58.6663Z" fill="#E679A2"/>
</svg>
