<svg width="32" height="32" viewBox="0 0 32 32" fill="none" xmlns="http://www.w3.org/2000/svg">
<path d="M16.0013 29.3334C8.6373 29.3334 2.66797 23.3641 2.66797 16.0001C2.66797 8.63608 8.6373 2.66675 16.0013 2.66675C23.3653 2.66675 29.3346 8.63608 29.3346 16.0001C29.3346 23.3641 23.3653 29.3334 16.0013 29.3334ZM11.8546 17.5601L11.872 17.5507L13.032 21.3774C13.1813 21.7921 13.3866 21.8667 13.636 21.8321C13.8866 21.7987 14.0186 21.6641 14.1826 21.5067L15.7666 19.9761L19.1666 22.4934C19.788 22.8361 20.2346 22.6587 20.3893 21.9174L22.5986 11.4881C22.8426 10.5174 22.416 10.1281 21.6626 10.4374L8.6853 15.4507C7.79997 15.8054 7.8053 16.3014 8.5253 16.5214L11.8546 17.5614V17.5601Z" fill="black"/>
</svg>
