<svg width="64" height="64" viewBox="0 0 64 64" fill="none" xmlns="http://www.w3.org/2000/svg">
<path d="M32.0026 58.6663C17.2746 58.6663 5.33594 46.7277 5.33594 31.9997C5.33594 17.2717 17.2746 5.33301 32.0026 5.33301C46.7306 5.33301 58.6693 17.2717 58.6693 31.9997C58.6693 46.7277 46.7306 58.6663 32.0026 58.6663ZM23.7093 35.1197L23.7439 35.101L26.0639 42.7543C26.3626 43.5837 26.7733 43.733 27.2719 43.6637C27.7733 43.597 28.0373 43.3277 28.3653 43.013L31.5333 39.9517L38.3333 44.9863C39.5759 45.6717 40.4693 45.317 40.7786 43.8343L45.1973 22.9757C45.6853 21.0343 44.8319 20.2557 43.3253 20.8743L17.3706 30.901C15.5999 31.6103 15.6106 32.6023 17.0506 33.0423L23.7093 35.1223V35.1197Z" fill="#66B9E3"/>
</svg>
